<?xml version="1.0" encoding="UTF-8" standalone="no"?>
<svg
   xmlns:dc="http://purl.org/dc/elements/1.1/"
   xmlns:cc="http://creativecommons.org/ns#"
   xmlns:rdf="http://www.w3.org/1999/02/22-rdf-syntax-ns#"
   xmlns:svg="http://www.w3.org/2000/svg"
   xmlns="http://www.w3.org/2000/svg"
   xmlns:sodipodi="http://sodipodi.sourceforge.net/DTD/sodipodi-0.dtd"
   xmlns:inkscape="http://www.inkscape.org/namespaces/inkscape"
   sodipodi:docname="13 Block Logo.svg"
   inkscape:version="1.0 (4035a4fb49, 2020-05-01)"
   id="svg8"
   version="1.1"
   viewBox="0 0 500 500"
   height="500mm"
   width="500mm">
  <defs
     id="defs2" />
  <sodipodi:namedview
     fit-margin-bottom="0"
     fit-margin-right="0"
     fit-margin-left="0"
     fit-margin-top="0"
     inkscape:window-maximized="1"
     inkscape:window-y="-11"
     inkscape:window-x="-11"
     inkscape:window-height="986"
     inkscape:window-width="1920"
     showgrid="false"
     inkscape:document-rotation="0"
     inkscape:current-layer="layer1"
     inkscape:document-units="mm"
     inkscape:cy="885.46089"
     inkscape:cx="2585.1747"
     inkscape:zoom="0.16789976"
     inkscape:pageshadow="2"
     inkscape:pageopacity="0.0"
     borderopacity="1.0"
     bordercolor="#666666"
     pagecolor="#ffffff"
     id="base" />
  <metadata
     id="metadata5">
    <rdf:RDF>
      <cc:Work
         rdf:about="">
        <dc:format>image/svg+xml</dc:format>
        <dc:type
           rdf:resource="http://purl.org/dc/dcmitype/StillImage" />
        <dc:title></dc:title>
      </cc:Work>
    </rdf:RDF>
  </metadata>
  <g
     transform="translate(-421.93829,50.750645)"
     id="layer1"
     inkscape:groupmode="layer"
     inkscape:label="Calque 1">
    <path
       d="m 673.94638,-24.816983 c -17.40213,4.2e-5 -34.32919,2.022549 -50.57142,5.824408 -0.47969,0.198113 -0.9574,0.407025 -1.44736,0.570331 -0.2719,0.09063 -0.62782,0.141363 -0.86625,0.320138 -0.55048,0.412878 -0.82002,2.027589 -1.37741,2.499256 -0.54528,0.461405 -1.49918,0.697658 -1.95313,1.186391 -0.35886,0.386722 -0.58311,1.040358 -0.70755,1.538829 -0.14981,0.599807 -0.50486,0.976874 -0.79899,1.506543 -0.19835,0.361061 -0.22599,0.686088 -0.22599,1.089559 0,1.303981 0.91856,1.173898 1.89125,1.312838 0.38191,0.05446 0.77207,0.05658 1.16219,0.05111 17.55756,-4.694655 35.96463,-7.196088 54.89466,-7.196432 23.01934,-6.9e-5 45.17669,3.674862 65.93545,10.446267 0.12478,0.0011 0.29738,0.0027 0.34973,0.0027 0.47681,0 0.91443,0.17876 1.40432,0.134518 0.60825,-0.05555 1.23018,-0.293981 1.83475,-0.06726 0.74929,0.280992 1.9358,1.391198 2.76558,1.154119 0.24729,-0.07065 0.32744,-0.912797 0.38471,-1.108389 0.075,-0.256846 0.18564,-0.490344 0.2502,-0.747892 0.0937,-0.375937 0.216,-0.719381 0.2717,-1.111075 0.0802,-0.56365 -0.16253,-1.129917 -0.11567,-1.700234 0.0609,-0.740358 0.36901,-1.863154 -0.0188,-2.56113 -0.23427,-0.421721 -1.19309,-0.726763 -1.63299,-0.836666 -0.66204,-0.16551 -1.36303,-0.543595 -1.77826,-1.103003 -21.90045,-7.261606 -45.31374,-11.20516 -69.65072,-11.204926 z m -59.89853,9.060786 c -0.8308,-0.02975 -1.88307,0.552768 -2.66335,0.634903 -0.64872,0.06825 -1.18567,-0.03751 -1.82669,-0.129132 -0.0268,-0.0038 -0.0563,4.55e-4 -0.0834,-0.0027 -28.27442,8.608706 -54.15193,22.718761 -76.37365,41.099021 -0.27498,1.35068 -0.3467,2.6431 -0.0995,4.25061 0.0557,0.36235 0.006,0.72909 0.12645,1.08956 0.46697,1.40087 2.08934,2.54925 3.69103,2.89739 3.89382,-3.29126 7.91372,-6.43403 12.0362,-9.44009 0.18045,-1.22632 0.392,-2.60364 0.71561,-2.8463 0.47478,-0.35629 1.17173,-0.45063 1.72446,-0.6349 1.27335,-0.42449 2.05179,-0.41784 2.98617,-0.35242 16.13855,-11.01473 33.84347,-19.84491998 52.66981,-26.106231 0.77971,-0.849022 1.93857,-1.281199 2.83015,-1.974656 0.35942,-0.279573 0.65799,-0.513058 1.08956,-0.704835 0.80255,-0.35668 1.70968,-0.432947 2.43737,-0.992713 0.2629,-0.20219 0.19416,-0.293568 0.32014,-0.513829 0.20626,-0.36102 0.58095,-0.666777 0.73713,-1.057273 0.1822,-0.456543 0.41595,-1.437686 0.48156,-1.92084 0.026,-0.185083 -0.0365,-0.394904 0,-0.578416 0.0494,-0.234904 0.0525,-0.473224 0.0942,-0.704835 0.063,-0.347714 0.38684,-0.672094 0.25826,-1.057273 -0.23318,-0.699559 -0.65296,-0.93719 -1.15143,-0.955041 z m 141.52624,7.890509 c -0.32041,1.11e-4 -0.626,0.05847 -0.81784,0.274408 -0.12546,0.141502 -0.20753,0.305923 -0.36319,0.430441 -0.0921,0.07377 -0.20638,0.08408 -0.29593,0.158733 -0.29834,0.24865 -0.70756,0.562589 -0.83666,0.949655 -0.064,0.186598 0.0188,1.302246 0.0188,1.632989 0,0.301171 -0.0767,0.466888 -0.13452,0.769408 -0.0276,0.15332 0.0249,0.284463 0.0457,0.430441 0.12328,0.924728 0.007,1.008998 0.7721,1.678718 0.12026,0.10526 0.17246,0.24006 0.29323,0.33897 0.28243,0.23107002 0.61509,0.41048002 0.90663,0.63490002 0.14628,0.11251 0.29639,0.29668 0.45466,0.38471 0.24331,0.13536 0.52819,0.22583 0.74787,0.40891 0.1489,0.12386 0.25735,0.2802 0.40624,0.40624 0.0105,0.009 0.0256,0.0139 0.0377,0.0215 17.57686,7.45215998 33.92109,17.22865998 48.699,28.90139998 0.47103,0.027 0.9504,0.0606 1.34512,0.12645 0.72956,0.12161 1.52346,0.61503 2.13069,0.95236 0.30402,0.28231 0.74102,0.26843 1.08686,0.45464 0.52934,0.28508 1.52482,1.23142 1.81324,1.72176 0.44552,0.75726 -0.0213,0.25514 0.54343,0.94967 0.21655,0.2655 0.4715,0.50112 0.68063,0.77209 0.19701,0.25498 0.29543,0.89365 0.36318,1.62224 44.67773,38.94695 72.92952,96.257865 72.93011,160.183155 1.1e-4,30.34236 -6.36553,59.19572 -17.831,85.30259 0.18609,0.42848 0.16166,0.98112 0.0161,1.49042 -0.0312,0.11817 -0.006,0.46274 -0.0646,0.5757 -0.10464,0.20981 -0.0536,0.65708 -0.12913,0.96043 -0.25041,1.00126 -0.41058,2.12042 -0.76942,3.07764 -0.14473,0.3863 -0.37893,0.74488 -0.57572,1.08956 -0.37274,0.65185 -0.6323,1.47313 -0.83398,2.17911 -0.0468,0.16607 -0.43833,0.74625 -0.44927,0.76942 -0.15982,0.34618 -0.14833,0.81062 -0.32014,1.15412 -0.34515,0.69062 -0.5846,1.37523 -0.7694,2.11453 -0.0469,0.1869 -0.32381,0.6025 -0.38472,0.76942 -0.40814,1.12224 -0.7694,2.06514 -0.7694,3.26865 0,1.19639 0.70372,1.91972 1.47425,2.69026 0.14212,0.14212 1.82313,0.0765 2.05266,0 0.0812,-0.026 0.1577,-0.2608 0.25558,-0.32014 1.98456,-1.19071 2.31886,-4.87486 3.3978,-6.79289 0.92582,-1.64592 1.79849,-3.3387 2.81938,-4.93663 0.69741,-1.09159 1.5738,-2.03969 2.34859,-3.06957 12.35806,-27.57778 19.23565,-58.14562 19.23532,-90.32262 -7e-5,-32.91038 -7.20529,-64.13173 -20.09889,-92.19773 -1.12699,-1.89013 -2.25016,-3.79194 -4.1134,-5.081885 -1.08997,-0.75459 -2.49625,-1.42298 -3.65336,-1.9881 -0.38249,-0.18679 -0.9151,-0.0837 -1.216,-0.38471 -0.12244,-0.12244 0.44296,-0.57195 0.57571,-0.70485 0.31913,-0.3188 0.28738,-0.77411 0.51384,-1.15143 0.5909,-0.98487 0.10812,-4.29798 -0.23943,-6.65031 -12.77803,-22.73914 -29.44683,-43.00001 -49.12405,-59.85548 -0.16302,-0.0204 -0.32477,-0.0483 -0.47619,-0.0915 -0.83841,-0.23957 -1.4334,-0.87861 -2.31092,-1.04113 -0.38654,-0.0716 -2.20048,0.078 -2.35667,0 -0.0541,-0.0279 0.0353,-0.1211 0.0457,-0.18295 0.0312,-0.25713 0.0484,-0.50702 0.0484,-0.76941 0,-0.83546 -0.0839,-1.56534 -0.29055,-2.3459 -15.62359,-12.55925 -32.98854,-23.04285998 -51.67709,-31.024013 -0.40062,-0.05815 -0.8015,-0.118678 -1.19448,-0.212535 -0.3538,-0.08449 -0.66456,-0.276295 -1.01961,-0.338967 -0.67672,-0.119063 -1.35827,-0.07916 -2.0392,-0.113003 -0.24872,-0.01233 -0.58353,-0.07004 -0.90393,-0.06995 z M 519.1787,38.508925 c -0.0523,0.002 -0.11522,0.0241 -0.16949,0.0296 -5.69605,5.59374 -11.09109,11.49327 -16.15767,17.67229 -0.1738,0.72529 -0.18974,1.48613 -0.3578,2.21408 -0.1135,0.4922 -0.42274,0.90731 -0.51384,1.40968 -0.0521,0.28715 0.0365,0.60694 0,0.89585 -0.0985,0.78821 -0.42581,1.55648 -0.76941,2.24368 -0.76892,1.53745 -0.25558,2.40876 -0.25558,4.03807 0,0.21083 0.0672,0.56821 0,0.76943 -0.12354,0.37071 -0.93599,0.59662 -1.15412,0.96041 -0.60206,1.00343 -0.7099,2.38291 -1.66796,3.20409 -0.97934,0.83943 -3.14027,1.98066 -4.35821,2.43737 -0.5764,0.21627 -1.52611,0.19868 -2.11454,0.25558 -0.84598,0.0819 -1.68204,0.13815 -2.51807,0.20715 -22.96974,34.869035 -36.35064,76.614585 -36.35073,121.491915 4.4e-4,10.69284 0.77637,21.37157 2.32169,31.95215 0.63814,0.75773 1.18021,1.61405 1.93698,2.21947 0.7906,0.63247 2.95951,2.07053 4.16721,1.66796 1.4739,-0.49145 0.19267,-2.77168 -0.19101,-3.46236 -0.59649,-1.07368 -2.213,-1.82662 -2.37281,-2.62569 -0.31835,-1.59183 2.37058,-1.4214 3.33322,-1.85896 0.59626,-0.27104 0.91914,-0.51202 1.25635,-0.71024 0.94483,-0.5554 0.63688,-2.76698 -0.45734,-3.82016 -4.79932,-4.61934 -2.16525,-11.08255 -1.18909,-16.87865 -0.0671,-2.16053 -0.10113,-4.32195 -0.10223,-6.48352 3e-5,-1.28333 0.011,-2.56682 0.035,-3.84975 -0.59095,-2.25972 -1.47015,-4.46791 -1.7352,-6.58844 -0.96313,-7.70493 0.28067,-13.58269 3.73945,-18.9125 6.34038,-45.45147 26.77307,-85.860075 56.50073,-117.082575 0.11135,-0.21243 0.21173,-0.4262 0.2744,-0.64567 0.28477,-0.99647 0.64659,-8.18172 0.44927,-8.97199 -0.0968,-0.38741 -0.26967,-0.85974 -0.44927,-1.21869 -0.21289,-0.42582 -0.62184,-0.57907 -1.1299,-0.55958 z M 458.59415,234.10929 c -0.0928,0.003 -0.17989,0.019 -0.26095,0.0538 -0.64146,0.27518 -1.58385,0.57166 -2.08226,1.12991 0.83381,4.6621 1.81715,9.29622 2.94853,13.89517 0.99238,0.34927 2.01743,0.35735 2.5934,-0.60262 0.43127,-0.71873 -0.15839,-5.16935 -0.32013,-5.89704 -0.154,-0.69301 -0.0254,-1.47307 -0.12645,-2.1791 -0.15004,-1.05036 -0.25827,-2.20692 -0.25827,-3.26867 0,-0.57859 0.0566,-1.95984 -0.51114,-2.24367 -0.44377,-0.22183 -1.33321,-0.90634 -1.98273,-0.88779 z m 13.419,28.24768 c -0.30263,1.27479 -0.54419,2.5761 -1.11915,3.726 -0.13581,0.27124 -0.38078,0.44445 -0.51114,0.70485 -0.0901,0.18013 -0.0484,0.39351 -0.12913,0.57572 -0.37083,0.83435 -0.76174,1.76417 -1.21869,2.56381 -0.2287,0.40033 -1.0437,2.1594 -0.83129,2.49925 0.552,0.88319 0.0543,0.12741 0.64028,0.64028 0.36182,0.31631 0.56369,0.66425 1.08956,0.76941 0.70044,0.14004 1.41609,-0.0203 2.11453,0.0646 1.32528,0.16568 2.79411,0.19175 4.22371,0.29055 -1.53605,-3.90191 -2.95623,-7.84845 -4.25868,-11.83443 z m -4.42008,13.52661 c 2.82608,7.33286 6.041,14.50988 9.6311,21.50051 0.99753,0.4337 1.94964,0.32793 2.60149,-1.6276 1.27924,-3.83773 1.01951,-5.27338 0.45195,-9.24641 -0.15406,-1.07842 -0.17628,-2.2004 -0.2179,-3.31171 -0.41189,-0.91986 -0.81724,-1.84263 -1.216,-2.76826 -0.42153,-0.31854 -0.83555,-0.63905 -1.28326,-0.88778 -0.98167,-0.54549 -2.0708,-0.91033 -3.07496,-1.41239 -0.84373,-0.42169 -1.66968,-0.94519 -2.5638,-1.28056 -0.57236,-0.21449 -1.31282,-0.61761 -1.92354,-0.70485 -0.81526,-0.11639 -1.61985,-0.17871 -2.40508,-0.26095 z m 392.64,24.30376 c -0.29414,-0.009 -0.69785,0.14504 -1.12721,0.35242 -6.07352,10.76451 -13.05093,20.95248 -20.84141,30.44831 -0.0547,0.20018 -0.12106,0.4195 -0.12106,0.53267 0,1.36743 0.6059,1.72773 1.44197,2.5638 0.44824,0.44824 1.22292,0.61988 1.47427,1.24828 0.0104,0.0208 0.0541,0.0672 0.0296,0.0646 -0.52503,-0.0526 -1.17779,-0.18014 -1.69755,-0.0646 -1.1347,0.25197 -2.13179,1.04391 -3.14222,1.57112 -0.61259,0.31964 -1.27218,0.505 -1.88857,0.80169 -0.52823,0.25458 -0.65205,0.40823 -1.18639,0.73714 -0.19992,0.12285 -0.42835,0.20299 -0.64029,0.28785 -0.22177,0.0885 -0.39432,0.30194 -0.61069,0.41698 -0.46617,0.24867 -0.92599,0.51048 -1.39085,0.76135 -11.2463,12.25912 -23.90398,23.20281 -37.73083,32.55208 -0.009,0.0844 0.004,0.17737 -0.043,0.24751 -0.24328,0.37592 -0.8103,0.74147 -0.90661,1.22406 -0.13953,0.70515 -0.18025,1.50042 -0.18025,2.21947 v 0.90661 c 0,0.35796 0.0417,0.78545 -0.0457,1.13529 -0.17622,0.70489 -1.2682,0.13611 -1.54152,-0.13721 -0.1291,-0.13051 -0.12306,-0.5898 -0.18293,-0.7694 -0.24159,-0.72469 -0.88609,-1.55181 -1.63029,-1.84821 -33.00715,21.11334 -72.23586,33.35391 -114.32507,33.35377 -47.91962,-9.1e-4 -93.66072,-16.17472 -130.45316,-44.79811 -1.71503,-0.0441 -4.45292,-0.39929 -5.17336,-1.84014 -0.17076,-0.34146 -0.64603,-0.59028 -0.76941,-0.96043 -0.37187,-1.11567 -0.18292,-1.63026 -0.16142,-2.13606 -1.20347,-1.00983 -2.40136,-2.02673 -3.58341,-3.0642 -1.4328,-0.36709 -1.5766,-0.80831 -3.30364,-0.37663 -0.11459,0.0286 -0.50084,0.0708 -0.5784,0.12914 -0.1239,0.0927 -0.17491,0.30088 -0.38471,0.38469 -0.10152,0.038 -0.24309,-0.0125 -0.32014,0.0646 -0.17908,0.17918 -0.37276,0.61113 -0.51384,0.70485 -1.06711,0.7117 -1.02499,3.1623 -1.02499,4.42276 0,0.16645 -0.0608,0.56757 -0.0457,0.85281 v 0.003 c 0.35463,0.31286 0.7196,0.61229 1.0761,0.92276 0.0327,0.0204 0.10225,0.0637 0.12375,0.078 0.0584,0.0385 0.56279,0.12497 0.57841,0.12913 1.38885,0.41647 2.8678,0.76209 4.35821,0.57571 0.64221,-0.0812 2.6783,-0.38934 3.20409,-0.12644 0.10517,0.0525 0.53407,0.49658 0.57572,0.57571 0.0854,0.17076 -0.09,0.42431 -0.12645,0.57841 -0.41495,1.66008 -1.60137,0.63827 -2.56381,1.6007 -0.12754,0.12749 -0.13953,0.87453 -0.0646,1.02498 0.18041,0.36087 0.46503,0.77173 0.63759,1.17834 38.79594,31.17029 87.50689,48.77908 138.51316,48.7797 68.2495,6.8e-4 129.27008,-30.92007 169.83847,-79.51049 0.0916,-0.35998 0.15335,-0.72953 0.28517,-1.08147 0.12442,-0.33037 0.16655,-0.3077 0.25557,-0.61069 0.14786,-0.50289 0.18635,-1.03844 0.35243,-1.53614 0.15461,-0.46385 0.38471,-0.84805 0.38471,-1.34781 0,-0.71323 -0.19047,-1.40597 -0.76942,-1.85628 -0.55871,-0.43459 -1.66009,-0.8943 -1.7944,-1.70024 -0.0952,-0.57105 0.41856,-0.94171 0.89854,-1.08956 1.41619,-0.43677 2.92914,-0.26288 4.3905,-0.38471 1.19456,-0.0994 2.45281,-0.19461 3.62109,-0.47886 0.14544,-0.0354 0.27227,-0.0907 0.41161,-0.13181 3.55405,-4.80204 6.91413,-9.75612 10.07769,-14.84484 0.14819,-0.30274 0.28465,-0.61037 0.34166,-0.95234 0.24832,-1.49084 0.36912,-3.41504 0.12913,-4.93394 -0.13588,-0.862 -0.53121,-1.69139 -0.64027,-2.5638 -0.0932,-0.74488 -0.64777,-3.51 -1.09225,-4.10265 -0.0915,-0.12199 -0.2291,-0.17761 -0.40354,-0.18293 z M 494.26694,311.82 c -0.50825,0.005 -0.96542,0.0926 -1.02768,0.34167 -0.28736,1.1491 1.02397,2.55179 1.2698,3.53498 0.17596,0.70427 0.54777,1.38131 0.72368,2.08496 0.3717,1.48714 -1.29131,3.10449 -2.17372,3.98696 -0.20963,0.2096 -0.55573,0.36323 -0.92814,0.47617 8.58118,12.39208 18.32646,23.72803 29.00902,33.94025 0.19445,0.0914 0.38705,0.20152 0.58109,0.3309 0.72701,0.48467 2.03001,2.05677 3.0104,1.72984 0.43975,-0.1466 0.95002,-1.37584 1.08954,-1.79441 0.20305,-0.60909 0.56535,-1.18197 0.76942,-1.79439 0.1744,-0.52393 -0.14522,-1.45761 -0.32013,-1.92353 -0.23375,-0.62373 -0.32113,-1.35295 -0.51116,-1.98541 -0.46719,-1.55734 -1.36999,-2.9373 -2.18448,-4.35821 -10.26354,-10.28577 -19.55934,-21.68205 -27.65582,-34.11513 -0.10992,-0.0996 -0.28571,-0.28079 -0.32283,-0.29323 -0.26138,-0.0872 -0.82073,-0.16601 -1.32899,-0.16142 z"
       style="opacity:1;fill:#221f1f;stroke-width:5.03685;stroke-linecap:round;stroke-linejoin:round;stroke-dashoffset:131.528;paint-order:stroke fill markers;fill-opacity:1"
       id="path24" />
    <path
       id="path1331"
       d="m 589.00292,291.24073 3.06884,18.53135 18.80292,-3.11381 -1.05899,-6.39475 z"
       style="opacity:1;fill:#aa1d23;stroke-width:3.34256;stroke-linecap:round;stroke-linejoin:round;stroke-dashoffset:131.528;paint-order:stroke fill markers;fill-opacity:1" />
    <path
       sodipodi:nodetypes="ccccccccccccccc"
       d="m 576.0539,213.0474 12.45633,75.2182 19.14191,8.29959 10.34195,-1.71265 10.99038,-11.02891 -7.39684,-44.66619 -7.91878,-6.56897 -15.30123,2.53392 -20.75408,-22.33327 z m 25.56269,37.7054 5.09782,-0.84421 4.66328,28.15946 -5.09782,0.84421 z"
       style="opacity:1;fill:#221f1f;stroke-width:3.34256;stroke-linecap:round;stroke-linejoin:round;stroke-dashoffset:131.528;paint-order:stroke fill markers;fill-opacity:1"
       id="path1329" />
    <path
       id="rect128"
       d="m 548.00281,141.47197 c -3.08081,0.51019 -4.32641,2.54541 -3.5804,7.05027 l 1.32075,7.97539 20.38685,-3.37611 8.88344,53.6431 23.50677,25.29059 -15.94885,-96.30788 z"
       style="opacity:1;fill:#aa1d23;stroke-width:3.34256;stroke-linecap:round;stroke-linejoin:round;stroke-dashoffset:131.528;paint-order:stroke fill markers;fill-opacity:1" />
    <path
       d="m 588.94468,152.72123 8.99871,54.33919 16.4119,-2.71785 -3.49067,-21.07856 6.39918,-1.05972 4.67392,28.2237 19.8482,-3.28692 -0.41301,-2.49403 -3.9495,-2.53019 -3.99051,-24.09694 -5.74047,-4.10931 4.10949,-5.73939 -2.38762,-14.41781 -11.2239,-5.87533 z m 18.43882,9.52182 6.39917,-1.05972 1.33819,8.08072 -6.39917,1.05972 z"
       style="opacity:1;fill:#221f1f;stroke-width:3.56712;stroke-linecap:round;stroke-linejoin:round;stroke-dashoffset:131.528;paint-order:stroke fill markers;fill-opacity:1"
       id="rect135" />
    <path
       sodipodi:nodetypes="ccccccccccc"
       d="m 622.13395,211.61294 11.30245,68.25042 -7.48214,11.38293 0.36879,2.22695 45.30081,-7.50193 -2.28832,-13.81816 -19.7717,3.27425 -10.09166,-60.93899 2.923,-3.6683 -0.41302,-2.49408 z"
       style="opacity:1;fill:#221f1f;stroke-width:3.56712;stroke-linecap:round;stroke-linejoin:round;stroke-dashoffset:131.528;paint-order:stroke fill markers;fill-opacity:1"
       id="rect135-7" />
    <path
       d="m 663.68073,225.09104 10.02484,60.53553 41.29805,-6.83907 -10.02484,-60.53552 z m 16.3105,13.54599 13.91452,-2.30429 4.78737,28.90878 -13.91452,2.30428 z"
       style="opacity:1;fill:#221f1f;stroke-width:2.62733;stroke-linecap:round;stroke-linejoin:round;stroke-dashoffset:131.528;paint-order:stroke fill markers;fill-opacity:1"
       id="rect190" />
    <path
       d="m 707.51832,217.83142 10.02485,60.53553 38.93812,-6.44826 1.66788,-4.56973 -1.57444,-9.50734 -24.40176,4.041 -5.49189,-33.16307 24.40176,-4.041 -2.26647,-13.6862 z"
       style="opacity:1;fill:#221f1f;stroke-width:2.62733;stroke-linecap:round;stroke-linejoin:round;stroke-dashoffset:131.528;paint-order:stroke fill markers;fill-opacity:1"
       id="rect190-1" />
    <path
       d="m 630.35249,145.86399 2.14935,12.979 4.72313,28.52086 2.12623,12.83933 16.41195,-2.71787 19.64645,-3.2535 3.39249,-11.29332 -2.79081,-1.99775 -22.37435,3.70525 -1.35766,-8.19826 17.83522,-2.95356 1.14008,-11.62867 -20.8192,3.44772 -1.52157,-9.1881 38.22206,-6.32967 4.21549,-14.03303 -44.58691,7.38371 z"
       style="opacity:1;fill:#221f1f;stroke-width:1.9559;stroke-linecap:round;stroke-linejoin:round;stroke-dashoffset:131.528;paint-order:stroke fill markers;fill-opacity:1"
       id="rect233" />
    <path
       d="m 696.73628,134.87066 -17.64991,58.75227 15.9896,-2.64792 17.64991,-58.75227 z"
       style="opacity:1;fill:#221f1f;stroke:none;stroke-width:0.575263px;stroke-linecap:butt;stroke-linejoin:miter;stroke-opacity:1;fill-opacity:1"
       id="path256" />
    <path
       sodipodi:nodetypes="ccccccccccccccccccc"
       d="m 627.28374,129.43527 2.18291,13.18161 86.35464,-14.30056 -3.98508,13.2649 -19.59105,65.21334 17.74758,-2.93904 77.60367,-12.85138 -16.29169,44.63777 -24.07261,65.95544 17.74765,-2.93905 24.0726,-65.95545 21.43687,-58.73029 -17.74986,2.93942 -78.56024,13.00978 15.40473,-51.2796 9.32244,-31.03129 -17.74878,2.93925 -85.6736,14.18778 z"
       style="opacity:1;fill:#aa1d23;stroke:none;stroke-width:0.63852px;stroke-linecap:butt;stroke-linejoin:miter;stroke-opacity:1;fill-opacity:1"
       id="path256-2" />
    <path
       sodipodi:nodetypes="cccccccccccccccc"
       d="m 734.68075,128.58695 -17.65111,58.75248 15.98977,-2.64794 44.32086,-7.33966 4.23899,-14.11099 -44.32086,7.33966 3.05717,-10.17521 29.88537,-4.9491 4.14775,-13.80888 -29.88429,4.94892 2.47478,-8.23838 42.08963,-6.97016 3.73005,-12.41863 -42.08855,6.96997 -10.09807,1.67227 z"
       style="opacity:1;fill:#221f1f;stroke:none;stroke-width:0.575263px;stroke-linecap:butt;stroke-linejoin:miter;stroke-opacity:1;fill-opacity:1"
       id="path256-3" />
    <path
       sodipodi:nodetypes="cccccc"
       d="m 750.75733,210.67092 8.76045,52.90038 8.25157,-22.60858 2.69411,-7.38182 -4.21869,-25.47474 z"
       style="opacity:1;fill:#221f1f;stroke:none;stroke-width:3.13426;stroke-linecap:round;stroke-linejoin:round;stroke-miterlimit:4;stroke-dasharray:none;stroke-dashoffset:131.528;paint-order:stroke fill markers;fill-opacity:1"
       id="rect1345" />
    <path
       d="m 787.94427,239.70359 -5.37192,14.71767 -0.24992,0.68483 10.54092,10.78763 17.43063,-2.88656 z"
       style="opacity:1;fill:#221f1f;stroke:none;stroke-width:0.622562px;stroke-linecap:butt;stroke-linejoin:miter;stroke-opacity:1;fill-opacity:1"
       id="path1364" />
  </g>
</svg>
